<?xml version="1.0" encoding="UTF-8" standalone="no"?>
<!-- Created with Inkscape (http://www.inkscape.org/) -->

<svg
   version="1.1"
   id="svg2"
   width="250.65334"
   height="88.293335"
   viewBox="0 0 250.65334 88.293335"
   sodipodi:docname="BESTE CROP_logo_RGB.eps"
   xmlns:inkscape="http://www.inkscape.org/namespaces/inkscape"
   xmlns:sodipodi="http://sodipodi.sourceforge.net/DTD/sodipodi-0.dtd"
   xmlns="http://www.w3.org/2000/svg"
   xmlns:svg="http://www.w3.org/2000/svg">
  <defs
     id="defs6">
    <clipPath
       clipPathUnits="userSpaceOnUse"
       id="clipPath20">
      <path
         d="M 1665.29,246.133 C 1665.29,100.715 1556.53,0 1414.41,0 c -135.03,0 -244.55,112.691 -245.34,247.531 0,0 52.14,-218.8162 245.34,-218.8162 121.66,0 220.28,98.6212 220.28,220.2732 0,83.153 -46.09,155.516 -114.1,193.012 0,0 144.7,-48.812 144.7,-195.867 z"
         id="path18" />
    </clipPath>
    <linearGradient
       x1="0"
       y1="0"
       x2="1"
       y2="0"
       gradientUnits="userSpaceOnUse"
       gradientTransform="matrix(496.218,0,0,-496.218,1169.07,220.999)"
       spreadMethod="pad"
       id="linearGradient32">
      <stop
         style="stop-opacity:1;stop-color:#3fb93c"
         offset="0"
         id="stop22" />
      <stop
         style="stop-opacity:1;stop-color:#7ecc28"
         offset="0.338322"
         id="stop24" />
      <stop
         style="stop-opacity:1;stop-color:#bd8f56"
         offset="0.684309"
         id="stop26" />
      <stop
         style="stop-opacity:1;stop-color:#9f7719"
         offset="0.984809"
         id="stop28" />
      <stop
         style="stop-opacity:1;stop-color:#9f7719"
         offset="1"
         id="stop30" />
    </linearGradient>
    <clipPath
       clipPathUnits="userSpaceOnUse"
       id="clipPath58">
      <path
         d="m 1138.74,302.551 c 4.79,0.121 8.41,-0.985 10.86,-3.313 2.46,-2.328 3.69,-5.695 3.69,-10.101 v -0.946 c 0,-9.07 -4.91,-13.601 -14.74,-13.601 -10.58,-0.129 -19.14,-0.508 -25.69,-1.133 -6.55,-0.633 -11.9,-1.387 -16.06,-2.269 -4.15,-0.883 -7.15,-2.36 -8.97,-4.438 -1.83,-2.078 -2.99,-4.16 -3.49,-6.234 -0.51,-2.078 -0.76,-5.133 -0.76,-9.161 v -125.25 c 0,-9.07 -4.53,-13.601 -13.6,-13.601 h -3.4 c -9.07,0 -13.6,4.531 -13.6,13.601 v 128.649 c 0,7.426 0.66,13.57 1.98,18.418 1.32,4.848 3.68,9.223 7.09,13.129 3.4,3.902 8.4,6.926 15.01,9.066 6.62,2.141 14.8,3.809 24.56,5.008 9.76,1.191 22.14,1.922 37.12,2.176 z M 832.141,238.316 c 0,32.997 6.55,60.262 19.644,81.797 13.102,21.539 31.738,35.77 55.918,42.696 24.184,6.925 53.34,5.918 87.465,-3.02 7.562,-2.016 11.332,-7.121 11.332,-15.305 v -2.078 c 0,-4.789 -1.38,-8.187 -4.15,-10.199 -2.776,-2.016 -6.616,-2.394 -11.526,-1.137 -18.133,4.785 -34.16,6.993 -48.074,6.618 -13.922,-0.379 -25.852,-2.715 -35.801,-6.993 -9.949,-4.281 -18.07,-10.804 -24.367,-19.554 -6.301,-8.75 -10.898,-19.11 -13.793,-31.075 -2.898,-11.964 -4.344,-25.878 -4.344,-41.75 0,-15.867 1.446,-29.812 4.344,-41.839 2.895,-12.032 7.492,-22.418 13.793,-31.172 6.297,-8.754 14.418,-15.274 24.367,-19.551 9.949,-4.281 21.879,-6.613 35.801,-6.988 13.914,-0.379 29.941,1.824 48.074,6.609 4.91,1.258 8.75,1.008 11.526,-0.754 2.77,-1.766 4.15,-4.914 4.15,-9.445 v -3.215 c 0,-7.934 -4.15,-13.16 -12.465,-15.68 -33.879,-8.812 -62.808,-9.695 -86.805,-2.644 -23.988,7.054 -42.503,21.375 -55.539,42.98 -13.031,21.598 -19.55,48.828 -19.55,81.699 z m -74.602,20.227 H 704.91 v -75.844 c 0,-19.734 8.707,-28.054 29.992,-28.054 10.254,0 16.832,2.128 23.606,2.128 11.992,0 16.637,-4.644 16.637,-14.128 v -9.668 c 0,-9.868 -4.645,-17.028 -14.317,-18.965 -61.527,-14.7073 -110.672,0.968 -110.672,68.687 v 146.27 c 0,11.418 6.387,17.801 17.805,17.801 h 19.152 c 11.414,0 17.797,-6.383 17.797,-17.801 v -26.313 h 52.629 c 11.414,0 17.801,-6.386 17.801,-17.801 v -8.511 c 0,-11.414 -6.387,-17.801 -17.801,-17.801 z M 453.816,136.844 v 5.418 c 0,12.383 7.352,18.187 19.922,15.863 45.086,-8.703 91.325,-11.414 91.325,10.063 0,8.32 -5.997,12.96 -18.961,16.445 l -40.629,10.445 c -37.922,9.68 -54.172,28.641 -54.172,54.758 0,54.367 70.23,65.977 138.14,49.144 10.45,-2.515 15.286,-9.484 15.286,-19.929 v -4.645 c 0,-12.57 -7.352,-17.992 -19.93,-15.285 -37.531,8.129 -82.035,10.063 -82.035,-7.738 0,-6.383 5.031,-10.836 13.738,-12.961 l 43.531,-11.227 c 37.922,-9.668 56.301,-28.242 56.301,-57.652 0,-59.785 -78.355,-70.8164 -147.426,-52.625 -10.258,2.707 -15.09,9.477 -15.09,19.926 z m -81.609,100.418 c 0,18.379 -11.219,28.246 -35.984,28.246 -26.899,0 -41.211,-12.192 -44.114,-44.887 l 66.746,6.774 c 11.223,1.16 13.352,3.285 13.352,9.867 z m 4.645,-47.211 -81.84,-8.512 c 6.965,-21.672 24.57,-29.41 50.304,-29.41 12.579,0 27.668,2.129 44.305,6.191 12.574,2.899 20.121,-2.515 20.121,-15.09 v -5.808 c 0,-10.445 -4.832,-17.219 -15.09,-19.926 -20.894,-5.609 -40.629,-8.516 -58.816,-8.516 -58.625,0 -97.902,31.926 -97.902,98.485 0,62.879 33.281,98.672 98.289,98.672 54.558,0 86.871,-25.539 86.871,-73.91 0,-27.082 -11.414,-38.497 -46.242,-42.176 z m -225.356,-4.836 c 0,24.57 -12.769,32.113 -47.984,32.113 H 54.3711 V 171.09 c 0,-9.871 2.3203,-16.063 15.8672,-16.063 h 33.2737 c 35.601,0 47.984,7.356 47.984,30.188 z m -58.4296,77.39 c 35.2106,0 48.1756,7.547 48.1756,30.571 0,20.894 -12.765,28.246 -48.1756,28.246 H 70.2383 c -13.5469,0 -15.8672,-6.192 -15.8672,-16.059 V 262.605 Z M 205.867,180.57 c 0,-53.402 -38.894,-68.105 -113.9607,-68.105 H 60.1719 C 18.3828,112.465 0,127.754 0,167.996 v 140.465 c 0,40.242 18.3828,55.531 59.9805,55.531 h 26.5078 c 70.6207,0 107.1877,-14.32 107.1877,-63.851 0,-27.668 -11.223,-45.664 -33.473,-56.11 30.184,-10.058 45.664,-29.797 45.664,-63.461 z"
         id="path56" />
    </clipPath>
    <linearGradient
       x1="0"
       y1="0"
       x2="1"
       y2="0"
       gradientUnits="userSpaceOnUse"
       gradientTransform="matrix(1153.29,0,0,-1153.29,0,238.14)"
       spreadMethod="pad"
       id="linearGradient66">
      <stop
         style="stop-opacity:1;stop-color:#7ecc28"
         offset="0"
         id="stop60" />
      <stop
         style="stop-opacity:1;stop-color:#3fb93c"
         offset="0.995661"
         id="stop62" />
      <stop
         style="stop-opacity:1;stop-color:#ffffff"
         offset="1"
         id="stop64" />
    </linearGradient>
    <clipPath
       clipPathUnits="userSpaceOnUse"
       id="clipPath76">
      <path
         d="m 1781.68,135.375 c 23.42,0 40.61,5.285 51.57,15.867 10.96,10.578 16.43,28.43 16.43,53.555 0,25.125 -5.44,43.008 -16.34,53.648 -10.89,10.641 -28.11,15.961 -51.66,15.961 -9.32,0 -16.88,-0.691 -22.67,-2.074 -5.8,-1.387 -10.11,-3.684 -12.94,-6.894 -2.84,-3.211 -4.7,-6.645 -5.57,-10.297 -0.89,-3.657 -1.33,-8.375 -1.33,-14.168 V 139.34 c 16.25,-2.645 30.42,-3.965 42.51,-3.965 z m -1.89,167.184 c 33.12,0 58.09,-7.625 74.9,-22.86 16.81,-15.238 25.22,-40.176 25.22,-74.804 0,-34.512 -8.41,-59.387 -25.22,-74.625 -16.81,-15.235 -41.78,-22.856 -74.9,-22.856 -11.84,0 -25.38,0.883 -40.62,2.645 V 46.9648 c 0,-9.0703 -4.53,-13.6054 -13.6,-13.6054 h -2.83 c -9.07,0 -13.6,4.5351 -13.6,13.6054 V 247.02 c 0,19.14 5.25,33.183 15.77,42.125 10.51,8.941 28.81,13.414 54.88,13.414 z"
         id="path74" />
    </clipPath>
    <linearGradient
       x1="0"
       y1="0"
       x2="1"
       y2="0"
       gradientUnits="userSpaceOnUse"
       gradientTransform="matrix(170.775,0,0,-170.775,1709.14,167.959)"
       spreadMethod="pad"
       id="linearGradient84">
      <stop
         style="stop-opacity:1;stop-color:#bd8f56"
         offset="0"
         id="stop78" />
      <stop
         style="stop-opacity:1;stop-color:#9f7719"
         offset="0.300818"
         id="stop80" />
      <stop
         style="stop-opacity:1;stop-color:#9f7719"
         offset="1"
         id="stop82" />
    </linearGradient>
  </defs>
  <sodipodi:namedview
     id="namedview4"
     pagecolor="#ffffff"
     bordercolor="#000000"
     borderopacity="0.25"
     inkscape:showpageshadow="2"
     inkscape:pageopacity="0.0"
     inkscape:pagecheckerboard="0"
     inkscape:deskcolor="#d1d1d1" />
  <g
     id="g8"
     inkscape:groupmode="layer"
     inkscape:label="ink_ext_XXXXXX"
     transform="matrix(1.3333333,0,0,-1.3333333,0,88.293333)">
    <g
       id="g10"
       transform="scale(0.1)">
      <path
         d="m 1614.82,252.098 c 0,-112.961 -91.58,-204.5355 -204.54,-204.5355 -112.96,0 -204.53,91.5745 -204.53,204.5355 0,112.961 91.57,204.535 204.53,204.535 112.96,0 204.54,-91.574 204.54,-204.535"
         style="fill:#fde0c5;fill-opacity:1;fill-rule:nonzero;stroke:none"
         id="path12" />
      <g
         id="g14">
        <g
           id="g16"
           clip-path="url(#clipPath20)">
          <path
             d="M 1665.29,246.133 C 1665.29,100.715 1556.53,0 1414.41,0 c -135.03,0 -244.55,112.691 -245.34,247.531 0,0 52.14,-218.8162 245.34,-218.8162 121.66,0 220.28,98.6212 220.28,220.2732 0,83.153 -46.09,155.516 -114.1,193.012 0,0 144.7,-48.812 144.7,-195.867"
             style="fill:url(#linearGradient32);fill-opacity:1;fill-rule:nonzero;stroke:none"
             id="path34" />
        </g>
      </g>
      <path
         d="m 1371.33,106.199 c 2.04,-5.355 13.03,-32.3552 15.25,-37.6443 -0.34,-0.1914 -0.67,-0.3789 -1.01,-0.5664 -0.63,0.4687 -1.32,0.8789 -1.88,1.418 -20.4,19.7304 -33.97,33.4457 -52.07,55.3637 -46.05,55.777 -76.61,118.828 -89.28,190.253 -1.7,9.532 -2.78,19.168 -4.31,28.731 -0.3,1.934 -1.32,3.758 -2.01,5.633 -0.56,-0.09 -1.12,-0.184 -1.68,-0.274 -0.45,-3.351 -1.17,-6.695 -1.3,-10.058 -1,-26.688 1.43,-53.106 6.98,-79.196 16.06,-75.496 52.22,-140.054 106.71,-194.4527 14.13,-14.1094 29.27,-27.0977 47.48,-35.875 12.39,-5.9649 18.83,-5.0782 28.09,5.1289 10.67,11.7695 21.06,23.8437 30.99,36.25 35.34,44.1638 73.81,85.3598 115.69,123.3748 61.44,55.789 128.08,104.676 198.17,148.965 13.45,8.5 27.03,16.793 40.5,25.266 1.71,1.074 3.1,2.652 4.64,3.992 -0.24,0.383 -0.47,0.765 -0.71,1.144 -1.7,-0.316 -3.48,-0.402 -5.08,-0.996 -4.28,-1.586 -8.56,-3.215 -12.69,-5.133 -33.07,-15.296 -65.16,-32.406 -96.51,-50.972 -44.58,-26.403 -87.73,-54.91 -128.46,-86.977 -48.23,-37.972 -92.61,-79.824 -129.28,-129.363 -3.5,-4.7266 -6.92,-9.5079 -10.39,-14.2657 -0.37,2.1602 -10.05,-16.4531 -9.62,-14.6172 l -3.73,29.8599 c -0.06,-5.0669 -10.22,-44.3521 -6.68,-52.1685 -1.52,1.1524 -2.21,2.4336 -2.81,3.7578 l -35,53.4217"
         style="fill:#c59f18;fill-opacity:1;fill-rule:nonzero;stroke:none"
         id="path36" />
      <path
         d="m 1403.79,82.9531 c -0.98,38.8989 -0.53,74.5589 0.38,113.4689 1.09,46.148 2.73,92.281 4.04,138.422 0.07,2.461 0.77,3.996 2.93,5.293 5.27,3.156 9.29,7.781 10.86,13.687 1.7,6.41 3.04,13.117 3.17,19.727 0.33,16.437 -4,32.152 -8.79,47.73 -1.81,5.918 -4.87,11.957 -4.75,17.879 0.51,25.871 1.99,193.449 3.07,219.309 0.05,1.219 -0.3,2.457 -0.47,3.687 -0.33,-0.011 -0.67,-0.023 -1,-0.035 -0.29,-1.375 -0.68,-2.734 -0.84,-4.125 -1.95,-15.992 -3.94,-173.707 -5.77,-189.711 -1.86,-16.262 -2.23,-32.539 -9.87,-47.898 -7.74,-15.586 -12.42,-32.59 -12.65,-50.371 -0.14,-11.371 2.35,-21.848 11.93,-29.403 1.04,-0.816 1.52,-2.98 1.48,-4.492 -1.3,-43.945 -3.17,-87.875 -3.95,-131.828 -0.69,-38.699 -0.89,-77.441 -0.01,-116.1407 1.67,-29.832 10.07,-36.5703 12.02,-37.0078 8.3,-1.8632 1.18,8.9258 -1.78,31.8086"
         style="fill:#c5a018;fill-opacity:1;fill-rule:nonzero;stroke:none"
         id="path38" />
      <path
         d="m 1511.6,527.117 c -0.55,-4.867 -1.15,-9.726 -1.64,-14.601 -6.48,-52.348 -22.76,-166.399 -26.4,-183.766 -0.57,-5.027 -4.97,-26.945 -6.87,-31.547 -4.37,-13.82 -5.15,-25.883 -6.94,-38.973 -2.15,-15.718 -5.01,-31.246 -11.12,-45.867 -4.58,-10.965 -11.08,-20.218 -21.79,-25.457 -2.3,-1.125 -4.78,-2.109 -7.28,-2.543 -8.73,-1.508 -10.16,-1.375 -14.87,7.567 -4.51,8.543 -4.05,17.668 -1.36,26.672 3.23,10.828 9.35,19.914 16.11,28.535 10.76,13.707 23.05,25.816 35.96,37.273 1.59,1.406 2.99,3.332 3.8,5.324 11.21,30.121 30.19,169.512 33.51,193.18 1.33,7.731 5.01,31.953 6.11,40.059 0.37,1.664 0.54,2.422 1.01,3.945 0.41,1.617 1.88,1.562 1.77,0.199"
         style="fill:#c5a018;fill-opacity:1;fill-rule:nonzero;stroke:none"
         id="path40" />
      <path
         d="m 1479.02,611.984 c 0.12,-0.847 0.38,-1.718 0.32,-2.535 -1.38,-19.531 0.07,-147.062 -4.22,-182.101 -1.21,-11.594 -6.07,-54.907 -6.61,-61.457 -1.67,-20.125 -3.81,-40.09 -9.68,-58.813 -3.83,-12.199 -8.58,-23.883 -18.31,-30.047 -4.5,-2.851 -8.87,-5.609 -15.1,-4.836 -1.62,-0.312 -4.22,1.493 -5.49,3.282 -5.7,7.98 -7.14,17.39 -6.15,27.332 1.03,10.339 4.62,19.257 9.21,27.496 10.73,19.246 24.48,34.847 38.82,49.742 2.03,2.109 3.42,7.648 4.43,10.711 4.01,21.113 6.03,38.898 7.57,59.347 0.73,9.68 2.21,148.356 3.22,157.981 0.16,1.461 0.26,2.496 0.61,3.91 0.32,-0.117 1.06,0.106 1.38,-0.012"
         style="fill:#c5a018;fill-opacity:1;fill-rule:nonzero;stroke:none"
         id="path42" />
      <path
         d="m 1515.47,400.68 c -0.07,-0.856 0.01,-1.754 -0.22,-2.563 -4.42,-15.461 -19.01,-128.219 -36.01,-177.34 -3.01,-9.207 -6.56,-16.304 -10.34,-25.257 -0.65,-1.528 -2.2,-5.786 -2.34,-6.411 -1.13,-16.828 -2.99,-33.539 -7.47,-49.828 -2.44,-8.859 -5.62,-17.418 -11.42,-24.672 -5.9,-7.371 -13.2,-12.332 -22.78,-13.484 -3.53,-0.426 -5.99,0.742 -8.1,3.539 -6.29,8.336 -6.73,17.563 -4.12,27.16 3,11.043 8.85,20.668 16.27,29.043 9.24,10.414 19.06,20.309 28.99,30.055 3.95,3.883 6.24,6.676 9.79,12.902 7.42,16.688 7.97,19.317 15.33,41.367 6.49,19.477 27.74,145.227 29.79,152.493 0.24,0.882 0.45,1.484 1.02,2.582 0.1,0.308 0.77,1.492 1.61,0.414"
         style="fill:#c5a018;fill-opacity:1;fill-rule:nonzero;stroke:none"
         id="path44" />
      <path
         d="m 1288.09,527.117 c 0.55,-4.867 1.15,-9.726 1.64,-14.601 6.48,-52.348 22.76,-166.399 26.4,-183.766 0.57,-5.027 4.97,-26.945 6.87,-31.547 4.37,-13.82 5.15,-25.883 6.94,-38.973 2.15,-15.718 5.01,-31.246 11.12,-45.867 4.58,-10.965 11.08,-20.218 21.79,-25.457 2.3,-1.125 4.77,-2.109 7.27,-2.543 8.74,-1.508 10.17,-1.375 14.88,7.567 4.5,8.543 4.05,17.668 1.36,26.672 -3.24,10.828 -9.35,19.914 -16.12,28.535 -10.75,13.707 -23.04,25.816 -35.96,37.273 -1.58,1.406 -2.99,3.332 -3.79,5.324 -11.21,30.121 -30.19,169.512 -33.51,193.18 -1.33,7.731 -5.02,31.953 -6.11,40.059 -0.37,1.664 -0.54,2.422 -1.01,3.945 -0.41,1.617 -1.89,1.562 -1.77,0.199"
         style="fill:#c5a018;fill-opacity:1;fill-rule:nonzero;stroke:none"
         id="path46" />
      <path
         d="m 1323.92,611.984 c -0.11,-0.847 -0.38,-1.718 -0.32,-2.535 1.38,-19.531 -0.07,-147.062 4.22,-182.101 1.22,-11.594 6.07,-54.907 6.62,-61.457 1.66,-20.125 3.81,-40.09 9.68,-58.813 3.82,-12.199 8.58,-23.883 18.31,-30.047 4.5,-2.851 8.87,-5.609 15.09,-4.836 1.63,-0.312 4.22,1.493 5.5,3.282 5.69,7.98 7.13,17.39 6.14,27.332 -1.02,10.339 -4.61,19.257 -9.2,27.496 -10.73,19.246 -24.48,34.847 -38.83,49.742 -2.03,2.109 -3.42,7.648 -4.42,10.711 -4.01,21.113 -6.04,38.898 -7.58,59.347 -0.73,9.68 -2.2,148.356 -3.22,157.981 -0.16,1.461 -0.25,2.496 -0.6,3.91 -0.33,-0.117 -1.07,0.106 -1.39,-0.012"
         style="fill:#c5a018;fill-opacity:1;fill-rule:nonzero;stroke:none"
         id="path48" />
      <path
         d="m 1284.22,400.68 c 0.06,-0.856 -0.01,-1.754 0.22,-2.563 4.41,-15.461 19,-128.219 36.01,-177.34 3.01,-9.207 6.56,-16.304 10.34,-25.257 0.64,-1.528 2.2,-5.786 2.34,-6.411 1.13,-16.828 2.99,-33.539 7.47,-49.828 2.44,-8.859 5.62,-17.418 11.42,-24.672 5.9,-7.371 13.2,-12.332 22.78,-13.484 3.53,-0.426 5.99,0.742 8.1,3.539 6.29,8.336 6.72,17.563 4.12,27.16 -3,11.043 -8.85,20.668 -16.28,29.043 -9.23,10.414 -19.05,20.309 -28.98,30.055 -3.95,3.883 -6.24,6.676 -9.8,12.902 -7.42,16.688 -7.97,19.317 -15.32,41.367 -6.5,19.477 -27.75,145.227 -29.79,152.493 -0.25,0.882 -0.45,1.484 -1.02,2.582 -0.1,0.308 -0.77,1.492 -1.61,0.414"
         style="fill:#c5a018;fill-opacity:1;fill-rule:nonzero;stroke:none"
         id="path50" />
      <g
         id="g52">
        <g
           id="g54"
           clip-path="url(#clipPath58)">
          <path
             d="m 1138.74,302.551 c 4.79,0.121 8.41,-0.985 10.86,-3.313 2.46,-2.328 3.69,-5.695 3.69,-10.101 v -0.946 c 0,-9.07 -4.91,-13.601 -14.74,-13.601 -10.58,-0.129 -19.14,-0.508 -25.69,-1.133 -6.55,-0.633 -11.9,-1.387 -16.06,-2.269 -4.15,-0.883 -7.15,-2.36 -8.97,-4.438 -1.83,-2.078 -2.99,-4.16 -3.49,-6.234 -0.51,-2.078 -0.76,-5.133 -0.76,-9.161 v -125.25 c 0,-9.07 -4.53,-13.601 -13.6,-13.601 h -3.4 c -9.07,0 -13.6,4.531 -13.6,13.601 v 128.649 c 0,7.426 0.66,13.57 1.98,18.418 1.32,4.848 3.68,9.223 7.09,13.129 3.4,3.902 8.4,6.926 15.01,9.066 6.62,2.141 14.8,3.809 24.56,5.008 9.76,1.191 22.14,1.922 37.12,2.176 z M 832.141,238.316 c 0,32.997 6.55,60.262 19.644,81.797 13.102,21.539 31.738,35.77 55.918,42.696 24.184,6.925 53.34,5.918 87.465,-3.02 7.562,-2.016 11.332,-7.121 11.332,-15.305 v -2.078 c 0,-4.789 -1.38,-8.187 -4.15,-10.199 -2.776,-2.016 -6.616,-2.394 -11.526,-1.137 -18.133,4.785 -34.16,6.993 -48.074,6.618 -13.922,-0.379 -25.852,-2.715 -35.801,-6.993 -9.949,-4.281 -18.07,-10.804 -24.367,-19.554 -6.301,-8.75 -10.898,-19.11 -13.793,-31.075 -2.898,-11.964 -4.344,-25.878 -4.344,-41.75 0,-15.867 1.446,-29.812 4.344,-41.839 2.895,-12.032 7.492,-22.418 13.793,-31.172 6.297,-8.754 14.418,-15.274 24.367,-19.551 9.949,-4.281 21.879,-6.613 35.801,-6.988 13.914,-0.379 29.941,1.824 48.074,6.609 4.91,1.258 8.75,1.008 11.526,-0.754 2.77,-1.766 4.15,-4.914 4.15,-9.445 v -3.215 c 0,-7.934 -4.15,-13.16 -12.465,-15.68 -33.879,-8.812 -62.808,-9.695 -86.805,-2.644 -23.988,7.054 -42.503,21.375 -55.539,42.98 -13.031,21.598 -19.55,48.828 -19.55,81.699 z m -74.602,20.227 H 704.91 v -75.844 c 0,-19.734 8.707,-28.054 29.992,-28.054 10.254,0 16.832,2.128 23.606,2.128 11.992,0 16.637,-4.644 16.637,-14.128 v -9.668 c 0,-9.868 -4.645,-17.028 -14.317,-18.965 -61.527,-14.7073 -110.672,0.968 -110.672,68.687 v 146.27 c 0,11.418 6.387,17.801 17.805,17.801 h 19.152 c 11.414,0 17.797,-6.383 17.797,-17.801 v -26.313 h 52.629 c 11.414,0 17.801,-6.386 17.801,-17.801 v -8.511 c 0,-11.414 -6.387,-17.801 -17.801,-17.801 z M 453.816,136.844 v 5.418 c 0,12.383 7.352,18.187 19.922,15.863 45.086,-8.703 91.325,-11.414 91.325,10.063 0,8.32 -5.997,12.96 -18.961,16.445 l -40.629,10.445 c -37.922,9.68 -54.172,28.641 -54.172,54.758 0,54.367 70.23,65.977 138.14,49.144 10.45,-2.515 15.286,-9.484 15.286,-19.929 v -4.645 c 0,-12.57 -7.352,-17.992 -19.93,-15.285 -37.531,8.129 -82.035,10.063 -82.035,-7.738 0,-6.383 5.031,-10.836 13.738,-12.961 l 43.531,-11.227 c 37.922,-9.668 56.301,-28.242 56.301,-57.652 0,-59.785 -78.355,-70.8164 -147.426,-52.625 -10.258,2.707 -15.09,9.477 -15.09,19.926 z m -81.609,100.418 c 0,18.379 -11.219,28.246 -35.984,28.246 -26.899,0 -41.211,-12.192 -44.114,-44.887 l 66.746,6.774 c 11.223,1.16 13.352,3.285 13.352,9.867 z m 4.645,-47.211 -81.84,-8.512 c 6.965,-21.672 24.57,-29.41 50.304,-29.41 12.579,0 27.668,2.129 44.305,6.191 12.574,2.899 20.121,-2.515 20.121,-15.09 v -5.808 c 0,-10.445 -4.832,-17.219 -15.09,-19.926 -20.894,-5.609 -40.629,-8.516 -58.816,-8.516 -58.625,0 -97.902,31.926 -97.902,98.485 0,62.879 33.281,98.672 98.289,98.672 54.558,0 86.871,-25.539 86.871,-73.91 0,-27.082 -11.414,-38.497 -46.242,-42.176 z m -225.356,-4.836 c 0,24.57 -12.769,32.113 -47.984,32.113 H 54.3711 V 171.09 c 0,-9.871 2.3203,-16.063 15.8672,-16.063 h 33.2737 c 35.601,0 47.984,7.356 47.984,30.188 z m -58.4296,77.39 c 35.2106,0 48.1756,7.547 48.1756,30.571 0,20.894 -12.765,28.246 -48.1756,28.246 H 70.2383 c -13.5469,0 -15.8672,-6.192 -15.8672,-16.059 V 262.605 Z M 205.867,180.57 c 0,-53.402 -38.894,-68.105 -113.9607,-68.105 H 60.1719 C 18.3828,112.465 0,127.754 0,167.996 v 140.465 c 0,40.242 18.3828,55.531 59.9805,55.531 h 26.5078 c 70.6207,0 107.1877,-14.32 107.1877,-63.851 0,-27.668 -11.223,-45.664 -33.473,-56.11 30.184,-10.058 45.664,-29.797 45.664,-63.461"
             style="fill:url(#linearGradient66);fill-opacity:1;fill-rule:nonzero;stroke:none"
             id="path68" />
        </g>
      </g>
      <g
         id="g70">
        <g
           id="g72"
           clip-path="url(#clipPath76)">
          <path
             d="m 1781.68,135.375 c 23.42,0 40.61,5.285 51.57,15.867 10.96,10.578 16.43,28.43 16.43,53.555 0,25.125 -5.44,43.008 -16.34,53.648 -10.89,10.641 -28.11,15.961 -51.66,15.961 -9.32,0 -16.88,-0.691 -22.67,-2.074 -5.8,-1.387 -10.11,-3.684 -12.94,-6.894 -2.84,-3.211 -4.7,-6.645 -5.57,-10.297 -0.89,-3.657 -1.33,-8.375 -1.33,-14.168 V 139.34 c 16.25,-2.645 30.42,-3.965 42.51,-3.965 z m -1.89,167.184 c 33.12,0 58.09,-7.625 74.9,-22.86 16.81,-15.238 25.22,-40.176 25.22,-74.804 0,-34.512 -8.41,-59.387 -25.22,-74.625 -16.81,-15.235 -41.78,-22.856 -74.9,-22.856 -11.84,0 -25.38,0.883 -40.62,2.645 V 46.9648 c 0,-9.0703 -4.53,-13.6054 -13.6,-13.6054 h -2.83 c -9.07,0 -13.6,4.5351 -13.6,13.6054 V 247.02 c 0,19.14 5.25,33.183 15.77,42.125 10.51,8.941 28.81,13.414 54.88,13.414"
             style="fill:url(#linearGradient84);fill-opacity:1;fill-rule:nonzero;stroke:none"
             id="path86" />
        </g>
      </g>
    </g>
  </g>
</svg>
